<?xml version="1.0" encoding="UTF-8" standalone="no"?>
<svg
   xmlns:dc="http://purl.org/dc/elements/1.1/"
   xmlns:cc="http://creativecommons.org/ns#"
   xmlns:rdf="http://www.w3.org/1999/02/22-rdf-syntax-ns#"
   xmlns:svg="http://www.w3.org/2000/svg"
   xmlns="http://www.w3.org/2000/svg"
   xmlns:sodipodi="http://sodipodi.sourceforge.net/DTD/sodipodi-0.dtd"
   xmlns:inkscape="http://www.inkscape.org/namespaces/inkscape"
   height="16"
   viewBox="0 0 16 16"
   width="16"
   version="1.1"
   id="svg3666"
   sodipodi:docname="Exaggerator.svg"
   inkscape:version="1.0.2 (e86c870879, 2021-01-15)">
  <metadata
     id="metadata3672">
    <rdf:RDF>
      <cc:Work
         rdf:about="">
        <dc:format>image/svg+xml</dc:format>
        <dc:type
           rdf:resource="http://purl.org/dc/dcmitype/StillImage" />
        <dc:title></dc:title>
      </cc:Work>
    </rdf:RDF>
  </metadata>
  <defs
     id="defs3670" />
  <sodipodi:namedview
     pagecolor="#ffffff"
     bordercolor="#666666"
     borderopacity="1"
     objecttolerance="10"
     gridtolerance="10"
     guidetolerance="10"
     inkscape:pageopacity="0"
     inkscape:pageshadow="2"
     inkscape:window-width="1638"
     inkscape:window-height="983"
     id="namedview3668"
     showgrid="false"
     inkscape:zoom="39.421203"
     inkscape:cx="10.616322"
     inkscape:cy="6.7503996"
     inkscape:window-x="1941"
     inkscape:window-y="46"
     inkscape:window-maximized="1"
     inkscape:current-layer="svg3666" />
  <path
     d="M 3,13 7.5927708,8.4072292 13,3"
     fill="none"
     stroke="#f5f5f5"
     stroke-opacity="0.39216"
     stroke-width="2"
     id="path3658"
     style="fill:#ff9955;stroke:#ffb380"
     sodipodi:nodetypes="ccc" />
  <path
     d="m11 9v2h-2v2h2v2h2v-2h2v-2h-2v-2z"
     fill="#84ffb1"
     id="path3660"
     style="fill:#ff5555" />
  <circle
     cx="4"
     cy="12"
     fill="none"
     r="2"
     id="circle3662" />
  <path
     d="m13 1a2 2 0 0 0 -2 2 2 2 0 0 0 2 2 2 2 0 0 0 2-2 2 2 0 0 0 -2-2zm-10 10a2 2 0 0 0 -2 2 2 2 0 0 0 2 2 2 2 0 0 0 2-2 2 2 0 0 0 -2-2z"
     fill="#e0e0e0"
     id="path3664"
     style="fill:#ff9955" />
</svg>
