<?xml version="1.0" encoding="UTF-8" standalone="no"?>
<svg
   xmlns:dc="http://purl.org/dc/elements/1.1/"
   xmlns:cc="http://creativecommons.org/ns#"
   xmlns:rdf="http://www.w3.org/1999/02/22-rdf-syntax-ns#"
   xmlns:svg="http://www.w3.org/2000/svg"
   xmlns="http://www.w3.org/2000/svg"
   xmlns:sodipodi="http://sodipodi.sourceforge.net/DTD/sodipodi-0.dtd"
   xmlns:inkscape="http://www.inkscape.org/namespaces/inkscape"
   height="16"
   viewBox="0 0 16 16"
   width="16"
   version="1.1"
   id="svg13879"
   sodipodi:docname="ForkBind.svg"
   inkscape:version="1.0.2 (e86c870879, 2021-01-15)">
  <metadata
     id="metadata13885">
    <rdf:RDF>
      <cc:Work
         rdf:about="">
        <dc:format>image/svg+xml</dc:format>
        <dc:type
           rdf:resource="http://purl.org/dc/dcmitype/StillImage" />
        <dc:title></dc:title>
      </cc:Work>
    </rdf:RDF>
  </metadata>
  <defs
     id="defs13883" />
  <sodipodi:namedview
     pagecolor="#ffffff"
     bordercolor="#666666"
     borderopacity="1"
     objecttolerance="10"
     gridtolerance="10"
     guidetolerance="10"
     inkscape:pageopacity="0"
     inkscape:pageshadow="2"
     inkscape:window-width="1638"
     inkscape:window-height="983"
     id="namedview13881"
     showgrid="false"
     inkscape:zoom="27.875"
     inkscape:cx="1.4781541"
     inkscape:cy="4.9814331"
     inkscape:window-x="1941"
     inkscape:window-y="46"
     inkscape:window-maximized="1"
     inkscape:current-layer="svg13879" />
  <path
     d="m 8.017474,14.999912 a -1.0001,-1.0001 0 0 0 0.81445,-0.44336 l 5.9727,-8.9608999 0.02734,-0.03906 a -1,-1 0 0 0 0.0625,-0.10742 -1,-1 0 0 0 -0.44727,-1.3418 l -6,-3 a -1.0001,-1.0001 0 0 0 -0.89453,0 l -6,3 a -1,-1 0 0 0 -0.44726,1.3418 -1,-1 0 0 0 0.0625,0.10742 l 6,8.9999999 a -1.0001,-1.0001 0 0 0 0.84961,0.44336 z m 0.98242,-4.3008 V 3.6190121 l 3.5391,1.7715 z m -2,0 -3.5391,-5.3085999 3.5391,-1.7715 z"
     fill="#ffd684"
     id="path13877"
     style="fill:#ffccaa" />
  <g
     id="g14506"
     style="fill:#ff9955">
    <circle
       style="fill:#ff9955;fill-opacity:0.988235;stroke:none;stroke-width:1.84145"
       id="circle13927"
       r="1.6535699"
       cy="5.0765758"
       cx="13.722569" />
    <circle
       style="fill:#ff9955;fill-opacity:0.988235;stroke:none;stroke-width:1.84145"
       id="circle14496"
       r="1.6535699"
       cy="2.2222698"
       cx="7.9723415" />
    <circle
       style="fill:#ff9955;fill-opacity:0.988235;stroke:none;stroke-width:1.84145"
       id="circle14498"
       r="1.6535699"
       cy="5.1454606"
       cx="2.1844614" />
    <circle
       style="fill:#ff9955;fill-opacity:0.988235;stroke:none;stroke-width:1.84145"
       id="circle14500"
       r="1.6535699"
       cy="13.371901"
       cx="7.9403734" />
  </g>
</svg>
