<?xml version="1.0" encoding="UTF-8" standalone="no"?>
<svg
   xmlns:dc="http://purl.org/dc/elements/1.1/"
   xmlns:cc="http://creativecommons.org/ns#"
   xmlns:rdf="http://www.w3.org/1999/02/22-rdf-syntax-ns#"
   xmlns:svg="http://www.w3.org/2000/svg"
   xmlns="http://www.w3.org/2000/svg"
   xmlns:sodipodi="http://sodipodi.sourceforge.net/DTD/sodipodi-0.dtd"
   xmlns:inkscape="http://www.inkscape.org/namespaces/inkscape"
   height="16"
   viewBox="0 0 16 16"
   width="16"
   version="1.1"
   id="svg11607"
   sodipodi:docname="LookAt.2.svg"
   inkscape:version="1.0.2 (e86c870879, 2021-01-15)">
  <metadata
     id="metadata11613">
    <rdf:RDF>
      <cc:Work
         rdf:about="">
        <dc:format>image/svg+xml</dc:format>
        <dc:type
           rdf:resource="http://purl.org/dc/dcmitype/StillImage" />
        <dc:title></dc:title>
      </cc:Work>
    </rdf:RDF>
  </metadata>
  <defs
     id="defs11611" />
  <sodipodi:namedview
     pagecolor="#ffffff"
     bordercolor="#666666"
     borderopacity="1"
     objecttolerance="10"
     gridtolerance="10"
     guidetolerance="10"
     inkscape:pageopacity="0"
     inkscape:pageshadow="2"
     inkscape:window-width="845"
     inkscape:window-height="983"
     id="namedview11609"
     showgrid="false"
     inkscape:zoom="39.421203"
     inkscape:cx="6.1074472"
     inkscape:cy="9.9224131"
     inkscape:window-x="1941"
     inkscape:window-y="46"
     inkscape:window-maximized="1"
     inkscape:current-layer="svg11607" />
  <path
     d="m8 2c-2.5567 0-5.7907 1.9477-6.9551 5.7051a1.0001 1.0001 0 0 0 -.00586.57031c1.1244 3.9354 4.4609 5.7246 6.9609 5.7246s5.8365-1.7892 6.9609-5.7246a1.0001 1.0001 0 0 0 0-.55273c-1.1003-3.7876-4.4066-5.7227-6.9609-5.7227zm0 2a4 4 0 0 1 4 4 4 4 0 0 1 -4 4 4 4 0 0 1 -4-4 4 4 0 0 1 4-4zm0 2a2 2 0 0 0 -2 2 2 2 0 0 0 2 2 2 2 0 0 0 2-2 2 2 0 0 0 -2-2z"
     fill="#e0e0e0"
     fill-opacity=".99608"
     fill-rule="evenodd"
     id="path11605"
     style="fill:#ffb380" />
</svg>
