<?xml version="1.0" encoding="UTF-8" standalone="no"?>
<svg
   xmlns:dc="http://purl.org/dc/elements/1.1/"
   xmlns:cc="http://creativecommons.org/ns#"
   xmlns:rdf="http://www.w3.org/1999/02/22-rdf-syntax-ns#"
   xmlns:svg="http://www.w3.org/2000/svg"
   xmlns="http://www.w3.org/2000/svg"
   xmlns:sodipodi="http://sodipodi.sourceforge.net/DTD/sodipodi-0.dtd"
   xmlns:inkscape="http://www.inkscape.org/namespaces/inkscape"
   height="16"
   viewBox="0 0 16 16"
   width="16"
   version="1.1"
   id="svg4798"
   sodipodi:docname="Manager.svg"
   inkscape:version="1.0.2 (e86c870879, 2021-01-15)">
  <metadata
     id="metadata4804">
    <rdf:RDF>
      <cc:Work
         rdf:about="">
        <dc:format>image/svg+xml</dc:format>
        <dc:type
           rdf:resource="http://purl.org/dc/dcmitype/StillImage" />
        <dc:title></dc:title>
      </cc:Work>
    </rdf:RDF>
  </metadata>
  <defs
     id="defs4802" />
  <sodipodi:namedview
     pagecolor="#ffffff"
     bordercolor="#666666"
     borderopacity="1"
     objecttolerance="10"
     gridtolerance="10"
     guidetolerance="10"
     inkscape:pageopacity="0"
     inkscape:pageshadow="2"
     inkscape:window-width="1638"
     inkscape:window-height="983"
     id="namedview4800"
     showgrid="false"
     inkscape:zoom="35.537029"
     inkscape:cx="6.4600752"
     inkscape:cy="7.4263278"
     inkscape:window-x="1941"
     inkscape:window-y="46"
     inkscape:window-maximized="1"
     inkscape:current-layer="svg4798" />
  <path
     d="m6 2a4 4 0 0 0 -4 4 4 4 0 0 0 2 3.4531v3.5469a2 2 0 0 0 1 1.7324 2 2 0 0 0 1 .26562v.001953h4v-.001953a2 2 0 0 0 1-.26562 2 2 0 0 0 1-1.7324v-3.5469a4 4 0 0 0 2-3.4531 4 4 0 0 0 -4-4zm-1 3a1 1 0 0 1 1 1 1 1 0 0 1 -1 1 1 1 0 0 1 -1-1 1 1 0 0 1 1-1zm6 0a1 1 0 0 1 1 1 1 1 0 0 1 -1 1 1 1 0 0 1 -1-1 1 1 0 0 1 1-1zm-4 2h2v1h-2zm-2 2h1v1h1v-1h1 1v1h1v-1h1v.86719 3.1328h-1v-1h-1v1h-1-1v-1h-1v1h-1v-3.1309-.86914z"
     fill="#e0e0e0"
     id="path4796"
     style="fill:#ffb380" />
</svg>
