<?xml version="1.0" encoding="UTF-8" standalone="no"?>
<svg
   xmlns:dc="http://purl.org/dc/elements/1.1/"
   xmlns:cc="http://creativecommons.org/ns#"
   xmlns:rdf="http://www.w3.org/1999/02/22-rdf-syntax-ns#"
   xmlns:svg="http://www.w3.org/2000/svg"
   xmlns="http://www.w3.org/2000/svg"
   xmlns:sodipodi="http://sodipodi.sourceforge.net/DTD/sodipodi-0.dtd"
   xmlns:inkscape="http://www.inkscape.org/namespaces/inkscape"
   height="16"
   viewBox="0 0 16 16"
   width="16"
   version="1.1"
   id="svg4630"
   sodipodi:docname="Pole.svg"
   inkscape:version="1.0.2 (e86c870879, 2021-01-15)">
  <metadata
     id="metadata4636">
    <rdf:RDF>
      <cc:Work
         rdf:about="">
        <dc:format>image/svg+xml</dc:format>
        <dc:type
           rdf:resource="http://purl.org/dc/dcmitype/StillImage" />
        <dc:title></dc:title>
      </cc:Work>
    </rdf:RDF>
  </metadata>
  <defs
     id="defs4634" />
  <sodipodi:namedview
     pagecolor="#ffffff"
     bordercolor="#666666"
     borderopacity="1"
     objecttolerance="10"
     gridtolerance="10"
     guidetolerance="10"
     inkscape:pageopacity="0"
     inkscape:pageshadow="2"
     inkscape:window-width="845"
     inkscape:window-height="466"
     id="namedview4632"
     showgrid="false"
     inkscape:zoom="18.216557"
     inkscape:cx="7.8902098"
     inkscape:cy="8"
     inkscape:window-x="1941"
     inkscape:window-y="563"
     inkscape:window-maximized="1"
     inkscape:current-layer="svg4630" />
  <path
     d="m7.2832 1.3281a1.0001 1.0001 0 0 0 -.88086.51172l-3.6895 6.3906c.40599-.13877.83411-.23047 1.2871-.23047.37043 0 .72206.067873 1.0625.16211l3.0723-5.3223a1.0001 1.0001 0 0 0 -.85156-1.5117zm-3.2832 7.6719a3 3 0 0 0 -3 3 3 3 0 0 0 3 3h10a1 1 0 0 0 1-1 1 1 0 0 0 -1-1h-7.1738a3 3 0 0 0 .17383-1 3 3 0 0 0 -3-3zm0 2a1 1 0 0 1 1 1 1 1 0 0 1 -1 1 1 1 0 0 1 -1-1 1 1 0 0 1 1-1z"
     fill="#fc9c9c"
     id="path4628"
     style="fill:#ffccaa" />
</svg>
